<!-- Scene 7/11 — scene-education (Education/School) — extracted from frontend/index-i18n.html:1765 -->
<svg viewBox="0 0 260 280" xmlns="http://www.w3.org/2000/svg">
  <style>
    @keyframes sway {
      0%, 100% { transform: rotate(-1.5deg); }
      50%      { transform: rotate(1.5deg); }
    }
    @keyframes sway-r {
      0%, 100% { transform: rotate(1.2deg); }
      50%      { transform: rotate(-1.2deg); }
    }
    @keyframes fruit-glow {
      0%, 100% { opacity: .85; filter: brightness(1); }
      50%      { opacity: 1;   filter: brightness(1.15); }
    }
  </style>
  <g style="transform-origin:130px 150px;animation:sway 8s ease-in-out infinite">
    <path d="M130 260 Q130 220,130 180 Q130 150,130 120" fill="none" opacity=".5" stroke="#1c4532"
      stroke-linecap="round" stroke-width="3.5"></path>
    <path d="M130 88 Q100 82,70 100" fill="none" opacity=".45" stroke="#1c4532" stroke-linecap="round"
      stroke-width="1.8"></path>
    <path d="M130 88 Q160 82,190 100" fill="none" opacity=".45" stroke="#1c4532" stroke-linecap="round"
      stroke-width="1.8"></path>
    <path d="M70 100 L130 68 L190 100" fill="none" opacity=".25" stroke="#1c4532" stroke-width="1.2"></path>
    <rect fill="none" height="40" opacity=".3" rx="3" stroke="#1c4532" stroke-width="1.2" width="16"
      x="122" y="220"></rect>
    <g style="animation:sway-r 6s ease-in-out .2s infinite;transform-origin:92px 145px">
      <path d="M120 140 Q106 132,88 128" fill="none" opacity=".3" stroke="#1c4532"
        stroke-linecap="round" stroke-width="1"></path>
      <rect fill="none" height="16" opacity=".3" rx="2" stroke="#1c4532" stroke-width=".8" width="18"
        x="76" y="130"></rect>
    </g>
    <g style="animation:sway 6s ease-in-out .3s infinite;transform-origin:168px 145px">
      <path d="M140 140 Q154 132,172 128" fill="none" opacity=".3" stroke="#1c4532"
        stroke-linecap="round" stroke-width="1"></path>
      <rect fill="none" height="16" opacity=".3" rx="2" stroke="#1c4532" stroke-width=".8" width="18"
        x="166" y="130"></rect>
    </g>
    <path d="M92 96 Q82 86,76 76 Q84 84,92 96Z" fill="#1c4532" opacity=".3"></path>
    <path d="M168 96 Q178 86,184 76 Q176 84,168 96Z" fill="#1c4532" opacity=".3"></path>
    <ellipse cx="130" cy="68" fill="#c4622d" opacity=".85" rx="4.5" ry="5.5"
      style="animation:fruit-glow 4s ease-in-out infinite"></ellipse>
    <path d="M56 260 Q130 266,204 260" fill="none" opacity=".12" stroke="#1c4532" stroke-linecap="round"
      stroke-width="1"></path>
  </g>
</svg>
